<svg width="1200" height="1200" viewBox="0 0 1200 1200" fill="none" xmlns="http://www.w3.org/2000/svg">
<rect width="1200" height="1200" fill="white"/>
<path fill-rule="evenodd" clip-rule="evenodd" d="M550.234 466.823C560.873 462.39 573.092 467.421 577.525 478.06L662.609 682.261L747.692 478.06C752.125 467.421 764.344 462.39 774.983 466.823C785.622 471.256 790.654 483.474 786.221 494.114L681.873 744.548C678.632 752.325 671.034 757.391 662.609 757.391C654.184 757.391 646.585 752.325 643.344 744.548L538.997 494.114C534.563 483.474 539.595 471.256 550.234 466.823Z" fill="#262626"/>
<circle cx="151.304" cy="602.957" r="31.3043" fill="#32C7A9"/>
<circle cx="1048.7" cy="467.304" r="31.3043" fill="#32C7A9"/>
<path fill-rule="evenodd" clip-rule="evenodd" d="M859.611 466.428C870.442 462.486 882.417 468.07 886.359 478.901L977.723 729.922C981.666 740.752 976.081 752.728 965.25 756.67C954.419 760.612 942.444 755.028 938.502 744.197L847.138 493.177C843.195 482.346 848.78 470.37 859.611 466.428Z" fill="#262626"/>
<path fill-rule="evenodd" clip-rule="evenodd" d="M1048.7 517.391C1060.22 517.391 1069.57 526.734 1069.57 538.26L1069.57 738.608C1069.57 750.134 1060.22 759.478 1048.7 759.478C1037.17 759.478 1027.83 750.134 1027.83 738.608L1027.83 538.26C1027.83 526.734 1037.17 517.391 1048.7 517.391Z" fill="#262626"/>
<path fill-rule="evenodd" clip-rule="evenodd" d="M883.826 659.304C883.826 670.83 874.483 680.174 862.957 680.174L821.217 680.174C809.692 680.174 800.348 670.83 800.348 659.304C800.348 647.778 809.692 638.435 821.217 638.435L862.957 638.435C874.483 638.435 883.826 647.778 883.826 659.304Z" fill="#262626"/>
<path fill-rule="evenodd" clip-rule="evenodd" d="M499.826 605.044C499.826 616.569 490.483 625.913 478.957 625.913L437.217 625.913C425.692 625.913 416.348 616.569 416.348 605.044C416.348 593.518 425.692 584.174 437.217 584.174L478.957 584.174C490.483 584.174 499.826 593.518 499.826 605.044Z" fill="#262626"/>
<path d="M257.739 605.044C257.739 547.414 211.021 500.696 153.391 500.696C141.865 500.696 132.521 491.352 132.521 479.827C132.521 468.301 141.865 458.957 153.391 458.957C234.073 458.957 299.478 524.362 299.478 605.044C299.478 685.726 234.073 751.131 153.391 751.131C141.865 751.131 132.521 741.787 132.521 730.261C132.521 718.735 141.865 709.392 153.391 709.392C211.021 709.392 257.739 662.674 257.739 605.044Z" fill="#262626"/>
<path d="M478.957 458.957C398.276 458.957 332.87 524.362 332.87 605.044C332.87 685.726 398.275 751.131 478.957 751.131C490.483 751.131 499.827 741.787 499.827 730.261C499.827 718.735 490.483 709.392 478.957 709.392C421.327 709.392 374.609 662.674 374.609 605.044C374.609 547.414 421.327 500.696 478.957 500.696C490.483 500.696 499.827 491.352 499.827 479.827C499.827 468.301 490.483 458.957 478.957 458.957Z" fill="#262626"/>
</svg>
